# xmcd CD database file
#
# Track frame offsets:
#	182
#	14390
#	41272
#	52127
#	71142
#	83345
#	100420
#	119332
#	134352
#	161245
#
# Disc length: 2360 seconds
#
# Revision: 4
# Processed by: cddbd v1.5.2PL0 Copyright (c) Steve Scherf et al.
# Submitted via: jetAudio 7
#
DISCID=8509360a
DTITLE=The Statler Brothers - Home
DYEAR=1993
DGENRE=Country
TTITLE0=Dream On
TTITLE1=The All-Girl-All-Gospel Quartet
TTITLE2=Chattanoogie Shoe Shine Boy
TTITLE3=He'll Always Have You Again
TTITLE4=Feeling Mighty Fine
TTITLE5=My Past Is Looking Brighter (All The Time)
TTITLE6=That Haunted Old House
TTITLE7=Chet, You're The Reason
TTITLE8=I've Never Lived This Long Before
TTITLE9=What We Love To Do
EXTD=YEAR: 1993
EXTT0=
EXTT1=
EXTT2=
EXTT3=
EXTT4=
EXTT5=
EXTT6=
EXTT7=
EXTT8=
EXTT9=
PLAYORDER=
